<svg width="146" height="53" viewBox="0 0 146 53" fill="none" xmlns="http://www.w3.org/2000/svg">
<path d="M9.1875 33.8203L13.4297 13.8516H13.8984L16.9219 30.4922H22.7812L32.8828 13.8516H33.3516L29.1094 33.8203H38.2734L45.4688 0H33.4219L22.3828 18.4219H21.9141L18.7734 0H7.19531L0 33.8203H9.1875Z" fill="#5F59F7"/>
<path d="M52.1756 33.8203L59.3709 0H49.4334L42.2381 33.8203H52.1756Z" fill="#5F59F7"/>
<path d="M66.0544 33.8203L73.2497 0H63.3122L56.1169 33.8203H66.0544Z" fill="#5F59F7"/>
<path d="M79.9331 33.8203L87.1284 0H77.1909L69.9956 33.8203H79.9331Z" fill="#5F59F7"/>
<mask id="mask0_2_131" style="mask-type:alpha" maskUnits="userSpaceOnUse" x="95" y="5" width="51" height="27">
<path d="M112.246 5C100.674 5 95.8527 6.56793 95.8527 7.83308V29.1072C95.8527 30.3434 100.674 32 112.246 32C123.817 32 128.638 30.4321 128.638 29.167V7.89286C128.638 6.65665 123.817 5 112.246 5ZM144.79 5.05979C144.466 5.07271 144.152 5.17774 143.886 5.36257L131.35 13.4375C130.868 13.8001 130.567 14.3979 130.567 15.0054V21.9946C130.567 22.6021 130.868 23.198 131.35 23.5625L143.886 31.6394C144.225 31.8959 145.876 32.7001 145.876 30.0715V6.92857C145.876 5.41079 145.353 5.03664 144.79 5.05979Z" fill="black"/>
<path d="M112.246 5C100.674 5 95.8527 6.56793 95.8527 7.83308V29.1072C95.8527 30.3434 100.674 32 112.246 32C123.817 32 128.638 30.4321 128.638 29.167V7.89286C128.638 6.65665 123.817 5 112.246 5ZM144.79 5.05979C144.466 5.07271 144.152 5.17774 143.886 5.36257L131.35 13.4375C130.868 13.8001 130.567 14.3979 130.567 15.0054V21.9946C130.567 22.6021 130.868 23.198 131.35 23.5625L143.886 31.6394C144.225 31.8959 145.876 32.7001 145.876 30.0715V6.92857C145.876 5.41079 145.353 5.03664 144.79 5.05979Z" fill="black"/>
</mask>
<g mask="url(#mask0_2_131)">
<path d="M105.873 52.6969L120.213 -14.568H100.408L86.0687 52.6969H105.873Z" fill="#6592FD"/>
<path d="M125.444 52.6969L139.784 -14.568H119.979L105.64 52.6969H125.444Z" fill="#44C2FD"/>
<path d="M145.109 52.6969L159.449 -14.568H139.644L125.304 52.6969H145.109Z" fill="#8C61FF"/>
</g>
<path d="M4.11719 52H7.82031L11.3672 40.7266H8.09375L6.04688 48.9531H5.89844L3.84375 40.7266H0.570312L4.11719 52Z" fill="#343090"/>
<path d="M19.1856 52H22.0528V40.7266H19.1856V52Z" fill="#343090"/>
<path d="M30.6369 52H35.3713C38.7619 52 40.6447 49.9531 40.6447 46.2578V46.2422C40.6447 42.7266 38.7306 40.7266 35.3713 40.7266H30.6369V52ZM33.5041 49.6953V43.0312H34.8556C36.6603 43.0312 37.7228 44.2031 37.7228 46.2969V46.3125C37.7228 48.5391 36.715 49.6953 34.8556 49.6953H33.5041Z" fill="#343090"/>
<path d="M48.6975 52H56.4241V49.6953H51.5647V47.3906H56.135V45.2812H51.5647V43.0312H56.4241V40.7266H48.6975V52Z" fill="#343090"/>
<path d="M69.8206 52.3047C73.2113 52.3047 75.3753 50.0312 75.3753 46.3672V46.3516C75.3753 42.6953 73.2034 40.4219 69.8206 40.4219C66.43 40.4219 64.2581 42.6953 64.2581 46.3516V46.3672C64.2581 50.0312 66.4144 52.3047 69.8206 52.3047ZM69.8206 49.9297C68.2191 49.9297 67.1722 48.5391 67.1722 46.3672V46.3516C67.1722 44.1875 68.2347 42.7969 69.8206 42.7969C71.3988 42.7969 72.4534 44.1875 72.4534 46.3516V46.3672C72.4534 48.5391 71.3988 49.9297 69.8206 49.9297Z" fill="#343090"/>
<path d="M88.35 52.3047C91.2406 52.3047 93.2406 50.5469 93.4281 48.0312V47.9062H90.6703L90.6547 47.9922C90.4594 49.1562 89.5922 49.9297 88.3578 49.9297C86.7797 49.9297 85.8187 48.5781 85.8187 46.3594V46.3438C85.8187 44.1406 86.7797 42.7969 88.35 42.7969C89.5844 42.7969 90.4906 43.625 90.6547 44.8047L90.6625 44.875H93.4203V44.7344C93.2562 42.2422 91.1859 40.4219 88.35 40.4219C84.9672 40.4219 82.8969 42.6797 82.8969 46.3516V46.3672C82.8969 50.0391 84.975 52.3047 88.35 52.3047Z" fill="#343090"/>
<path d="M100.293 52H103.301L103.997 49.5234H107.676L108.372 52H111.379L107.59 40.7266H104.083L100.293 52ZM105.762 43.2109H105.911L107.098 47.4609H104.575L105.762 43.2109Z" fill="#343090"/>
<path d="M119.19 52H126.846V49.6953H122.057V40.7266H119.19V52Z" fill="#343090"/>
<path d="M134.86 52H142.516V49.6953H137.727V40.7266H134.86V52Z" fill="#343090"/>
</svg>
