<svg width="144" height="46" viewBox="0 0 144 46" fill="none" xmlns="http://www.w3.org/2000/svg">
<path d="M8.69736 28.3349L12.2515 11.6049H12.6442L15.1773 25.5466H20.0863L28.5495 11.6049H28.9422L25.3881 28.3349H33.0658L39.0941 0H29.0011L19.7525 15.434H19.3598L16.7285 0H7.02829L1 28.3349H8.69736Z" fill="white"/>
<path d="M47.9303 28.3349L53.9586 0H45.6329L39.6046 28.3349H47.9303Z" fill="white"/>
<path d="M62.7752 28.3349L68.8035 0H60.4778L54.4495 28.3349H62.7752Z" fill="white"/>
<path d="M77.6202 28.3349L83.6484 0H75.3227L69.2944 28.3349H77.6202Z" fill="white"/>
<mask id="mask0_7_2" style="mask-type:alpha" maskUnits="userSpaceOnUse" x="93" y="0" width="51" height="28">
<path d="M109.393 0.0146484C97.8214 0.0146484 93 1.58258 93 2.84772V24.1218C93 25.358 97.8214 27.0147 109.393 27.0147C120.964 27.0147 125.786 25.4468 125.786 24.1816V2.90751C125.786 1.67129 120.964 0.0146484 109.393 0.0146484ZM141.938 0.0744345C141.613 0.0873538 141.3 0.192385 141.033 0.377221L128.497 8.45216C128.015 8.81474 127.714 9.41259 127.714 10.0201V17.0093C127.714 17.6168 128.015 18.2127 128.497 18.5772L141.033 26.6541C141.373 26.9106 143.023 27.7148 143.023 25.0861V1.94322C143.023 0.425435 142.501 0.0512916 141.938 0.0744345Z" fill="black"/>
<path d="M109.393 0.0146484C97.8214 0.0146484 93 1.58258 93 2.84772V24.1218C93 25.358 97.8214 27.0147 109.393 27.0147C120.964 27.0147 125.786 25.4468 125.786 24.1816V2.90751C125.786 1.67129 120.964 0.0146484 109.393 0.0146484ZM141.938 0.0744345C141.613 0.0873538 141.3 0.192385 141.033 0.377221L128.497 8.45216C128.015 8.81474 127.714 9.41259 127.714 10.0201V17.0093C127.714 17.6168 128.015 18.2127 128.497 18.5772L141.033 26.6541C141.373 26.9106 143.023 27.7148 143.023 25.0861V1.94322C143.023 0.425435 142.501 0.0512916 141.938 0.0744345Z" fill="black"/>
</mask>
<g mask="url(#mask0_7_2)">
<path d="M103.021 47.7116L117.36 -19.5533H97.5557L83.216 47.7116H103.021Z" fill="white"/>
<path d="M122.592 47.7116L136.931 -19.5533H117.127L102.787 47.7116H122.592Z" fill="white"/>
<path d="M142.256 47.7116L156.596 -19.5533H136.791L122.452 47.7116H142.256Z" fill="white"/>
</g>
<path d="M4.11719 45.5928H7.82031L11.3672 34.3193H8.09375L6.04688 42.5459H5.89844L3.84375 34.3193H0.570312L4.11719 45.5928Z" fill="white"/>
<path d="M19.1856 45.5928H22.0528V34.3193H19.1856V45.5928Z" fill="white"/>
<path d="M30.6369 45.5928H35.3713C38.7619 45.5928 40.6447 43.5459 40.6447 39.8506V39.835C40.6447 36.3193 38.7306 34.3193 35.3713 34.3193H30.6369V45.5928ZM33.5041 43.2881V36.624H34.8556C36.6603 36.624 37.7228 37.7959 37.7228 39.8896V39.9053C37.7228 42.1318 36.715 43.2881 34.8556 43.2881H33.5041Z" fill="white"/>
<path d="M48.6975 45.5928H56.4241V43.2881H51.5647V40.9834H56.135V38.874H51.5647V36.624H56.4241V34.3193H48.6975V45.5928Z" fill="white"/>
<path d="M69.8206 45.8975C73.2113 45.8975 75.3753 43.624 75.3753 39.96V39.9443C75.3753 36.2881 73.2034 34.0146 69.8206 34.0146C66.43 34.0146 64.2581 36.2881 64.2581 39.9443V39.96C64.2581 43.624 66.4144 45.8975 69.8206 45.8975ZM69.8206 43.5225C68.2191 43.5225 67.1722 42.1318 67.1722 39.96V39.9443C67.1722 37.7803 68.2347 36.3896 69.8206 36.3896C71.3988 36.3896 72.4534 37.7803 72.4534 39.9443V39.96C72.4534 42.1318 71.3988 43.5225 69.8206 43.5225Z" fill="white"/>
<path d="M88.35 45.8975C91.2406 45.8975 93.2406 44.1396 93.4281 41.624V41.499H90.6703L90.6547 41.585C90.4594 42.749 89.5922 43.5225 88.3578 43.5225C86.7797 43.5225 85.8187 42.1709 85.8187 39.9521V39.9365C85.8187 37.7334 86.7797 36.3896 88.35 36.3896C89.5844 36.3896 90.4906 37.2178 90.6547 38.3975L90.6625 38.4678H93.4203V38.3271C93.2562 35.835 91.1859 34.0146 88.35 34.0146C84.9672 34.0146 82.8969 36.2725 82.8969 39.9443V39.96C82.8969 43.6318 84.975 45.8975 88.35 45.8975Z" fill="white"/>
<path d="M100.293 45.5928H103.301L103.997 43.1162H107.676L108.372 45.5928H111.379L107.59 34.3193H104.083L100.293 45.5928ZM105.762 36.8037H105.911L107.098 41.0537H104.575L105.762 36.8037Z" fill="white"/>
<path d="M119.19 45.5928H126.846V43.2881H122.057V34.3193H119.19V45.5928Z" fill="white"/>
<path d="M134.86 45.5928H142.516V43.2881H137.727V34.3193H134.86V45.5928Z" fill="white"/>
</svg>
