<svg width="144" height="47" viewBox="0 0 144 47" fill="none" xmlns="http://www.w3.org/2000/svg">
<path d="M8.69736 29.3203L12.2515 12.5903H12.6442L15.1773 26.5319H20.0863L28.5495 12.5903H28.9422L25.3881 29.3203H33.0658L39.0941 0.985352H29.0011L19.7525 16.4193H19.3598L16.7285 0.985352H7.02829L1 29.3203H8.69736Z" fill="#5F59F7"/>
<path d="M47.9303 29.3203L53.9586 0.985352H45.6329L39.6046 29.3203H47.9303Z" fill="#5F59F7"/>
<path d="M62.7752 29.3203L68.8035 0.985352H60.4778L54.4495 29.3203H62.7752Z" fill="#5F59F7"/>
<path d="M77.6202 29.3203L83.6484 0.985352H75.3227L69.2944 29.3203H77.6202Z" fill="#5F59F7"/>
<mask id="mask0_4_4" style="mask-type:alpha" maskUnits="userSpaceOnUse" x="93" y="1" width="51" height="27">
<path d="M109.393 1C97.8214 1 93 2.56793 93 3.83308V25.1072C93 26.3434 97.8214 28 109.393 28C120.964 28 125.786 26.4321 125.786 25.167V3.89286C125.786 2.65665 120.964 1 109.393 1ZM141.938 1.05979C141.613 1.07271 141.3 1.17774 141.033 1.36257L128.497 9.43752C128.015 9.80009 127.714 10.3979 127.714 11.0054V17.9946C127.714 18.6021 128.015 19.198 128.497 19.5625L141.033 27.6394C141.373 27.8959 143.023 28.7001 143.023 26.0715V2.92857C143.023 1.41079 142.501 1.03664 141.938 1.05979Z" fill="black"/>
<path d="M109.393 1C97.8214 1 93 2.56793 93 3.83308V25.1072C93 26.3434 97.8214 28 109.393 28C120.964 28 125.786 26.4321 125.786 25.167V3.89286C125.786 2.65665 120.964 1 109.393 1ZM141.938 1.05979C141.613 1.07271 141.3 1.17774 141.033 1.36257L128.497 9.43752C128.015 9.80009 127.714 10.3979 127.714 11.0054V17.9946C127.714 18.6021 128.015 19.198 128.497 19.5625L141.033 27.6394C141.373 27.8959 143.023 28.7001 143.023 26.0715V2.92857C143.023 1.41079 142.501 1.03664 141.938 1.05979Z" fill="black"/>
</mask>
<g mask="url(#mask0_4_4)">
<path d="M103.021 48.6969L117.36 -18.568H97.5557L83.216 48.6969H103.021Z" fill="#6592FD"/>
<path d="M122.592 48.6969L136.931 -18.568H117.127L102.787 48.6969H122.592Z" fill="#44C2FD"/>
<path d="M142.256 48.6969L156.596 -18.568H136.791L122.452 48.6969H142.256Z" fill="#8C61FF"/>
</g>
<path d="M4.11719 46.5781H7.82031L11.3672 35.3047H8.09375L6.04688 43.5312H5.89844L3.84375 35.3047H0.570312L4.11719 46.5781Z" fill="#343090"/>
<path d="M19.1856 46.5781H22.0528V35.3047H19.1856V46.5781Z" fill="#343090"/>
<path d="M30.6369 46.5781H35.3713C38.7619 46.5781 40.6447 44.5312 40.6447 40.8359V40.8203C40.6447 37.3047 38.7306 35.3047 35.3713 35.3047H30.6369V46.5781ZM33.5041 44.2734V37.6094H34.8556C36.6603 37.6094 37.7228 38.7812 37.7228 40.875V40.8906C37.7228 43.1172 36.715 44.2734 34.8556 44.2734H33.5041Z" fill="#343090"/>
<path d="M48.6975 46.5781H56.4241V44.2734H51.5647V41.9688H56.135V39.8594H51.5647V37.6094H56.4241V35.3047H48.6975V46.5781Z" fill="#343090"/>
<path d="M69.8206 46.8828C73.2113 46.8828 75.3753 44.6094 75.3753 40.9453V40.9297C75.3753 37.2734 73.2034 35 69.8206 35C66.43 35 64.2581 37.2734 64.2581 40.9297V40.9453C64.2581 44.6094 66.4144 46.8828 69.8206 46.8828ZM69.8206 44.5078C68.2191 44.5078 67.1722 43.1172 67.1722 40.9453V40.9297C67.1722 38.7656 68.2347 37.375 69.8206 37.375C71.3988 37.375 72.4534 38.7656 72.4534 40.9297V40.9453C72.4534 43.1172 71.3988 44.5078 69.8206 44.5078Z" fill="#343090"/>
<path d="M88.35 46.8828C91.2406 46.8828 93.2406 45.125 93.4281 42.6094V42.4844H90.6703L90.6547 42.5703C90.4594 43.7344 89.5922 44.5078 88.3578 44.5078C86.7797 44.5078 85.8187 43.1562 85.8187 40.9375V40.9219C85.8187 38.7188 86.7797 37.375 88.35 37.375C89.5844 37.375 90.4906 38.2031 90.6547 39.3828L90.6625 39.4531H93.4203V39.3125C93.2562 36.8203 91.1859 35 88.35 35C84.9672 35 82.8969 37.2578 82.8969 40.9297V40.9453C82.8969 44.6172 84.975 46.8828 88.35 46.8828Z" fill="#343090"/>
<path d="M100.293 46.5781H103.301L103.997 44.1016H107.676L108.372 46.5781H111.379L107.59 35.3047H104.083L100.293 46.5781ZM105.762 37.7891H105.911L107.098 42.0391H104.575L105.762 37.7891Z" fill="#343090"/>
<path d="M119.19 46.5781H126.846V44.2734H122.057V35.3047H119.19V46.5781Z" fill="#343090"/>
<path d="M134.86 46.5781H142.516V44.2734H137.727V35.3047H134.86V46.5781Z" fill="#343090"/>
</svg>
